<?xml version="1.0" encoding="UTF-8" standalone="no"?><!DOCTYPE svg PUBLIC "-//W3C//DTD SVG 1.1//EN" "http://www.w3.org/Graphics/SVG/1.1/DTD/svg11.dtd"><svg width="100%" height="100%" viewBox="0 0 921 313" version="1.1" xmlns="http://www.w3.org/2000/svg" xmlns:xlink="http://www.w3.org/1999/xlink" xml:space="preserve" xmlns:serif="http://www.serif.com/" style="fill-rule:evenodd;clip-rule:evenodd;stroke-linejoin:round;stroke-miterlimit:2;"><g><g><path d="M401.964,141.992l-41.9,-136.396l-59.729,-0l73.101,209.497l58.392,0l73.101,-209.497l-61.512,-0l-41.453,136.396Z" style="fill:#16243d;fill-rule:nonzero;"/><path d="M618.687,5.596c-10.252,-3.566 -20.95,-5.349 -32.539,-5.349c-50.368,-0 -90.931,35.659 -90.931,88.256c0,33.876 17.384,60.621 43.237,74.884l100.737,63.295c-4.903,16.493 -18.721,32.539 -48.14,32.539c-34.322,0 -49.923,-24.515 -49.923,-44.128l-54.825,0c0.445,57.946 43.682,96.28 104.748,96.28c66.415,-0 105.641,-47.694 106.086,-106.978l-63.295,-41.008c25.853,-14.263 42.791,-41.008 42.791,-74.884c0,-13.372 -2.674,-25.853 -7.577,-36.996l30.31,-0l-0,-45.911l-80.679,-0Zm-33.43,45.019c21.841,0 37.442,15.601 37.442,37.888c-0,22.287 -15.601,36.105 -37.442,36.105c-20.504,0 -36.105,-14.709 -36.105,-36.105c0.446,-22.287 16.046,-37.888 36.105,-37.888Z" style="fill:#16243d;fill-rule:nonzero;"/><path d="M919.614,111.236c0,-61.958 -45.02,-110.989 -111.881,-110.989c-65.523,-0 -112.326,46.357 -112.326,110.989c0,62.403 45.02,109.206 112.326,109.206c40.563,0 74.885,-18.275 94.052,-44.574l-41.009,-29.419c-10.252,13.818 -31.201,24.516 -52.151,24.516c-26.744,-0 -48.586,-15.601 -54.38,-40.117l164.478,0c0.445,-3.566 0.891,-13.372 0.891,-19.612Zm-165.369,-23.624c6.24,-22.287 26.298,-39.225 53.488,-39.225c27.191,-0 48.14,16.492 53.043,39.225l-106.531,-0Z" style="fill:#16243d;fill-rule:nonzero;"/><g><g id="Layer-1" serif:id="Layer 1"><path d="M134.121,215.085l-41.144,-0c-11.377,-0.582 -21.009,-7.914 -24.879,-18.097c-0.233,-0.553 -0.407,-1.106 -0.582,-1.688l-52.667,-151.002c-0.291,-0.698 -0.524,-1.397 -0.756,-2.124l-12.774,-36.572l39.718,-0c12.105,-0 22.435,7.623 26.421,18.359c0.204,0.552 0.407,1.105 0.582,1.687l52.347,150.042l0.524,1.542l0.698,2.008l12.512,35.845Z" style="fill:#f05a3a;fill-rule:nonzero;"/><path d="M233.799,215.085l-41.145,-0c-11.377,-0.582 -21.008,-7.914 -24.878,-18.097c-0.233,-0.553 -0.408,-1.106 -0.582,-1.688l-52.668,-151.002c-0.291,-0.698 -0.523,-1.397 -0.756,-2.124l-12.774,-36.572l39.719,-0c12.104,-0 22.434,7.623 26.42,18.359c0.204,0.552 0.408,1.105 0.582,1.687l52.347,150.042l0.524,1.542l0.699,2.008l12.512,35.845Z" style="fill:#f05a3a;fill-rule:nonzero;"/><path d="M333.475,215.085l-41.145,-0c-11.377,-0.582 -21.008,-7.914 -24.878,-18.097c-0.233,-0.553 -0.408,-1.106 -0.582,-1.688l-52.668,-151.002c-0.291,-0.698 -0.523,-1.397 -0.756,-2.124l-12.774,-36.572l39.719,-0c12.104,-0 22.434,7.623 26.42,18.359c0.204,0.552 0.408,1.105 0.582,1.687l52.347,150.042l0.524,1.542l0.699,2.008l12.512,35.845Z" style="fill:#f05a3a;fill-rule:nonzero;"/></g></g></g></g></svg>